#N canvas 733 138 635 331 10;
#N canvas 884 317 1034 651 core 0;
#X msg 267 61 listen 2000;
#X obj 267 83 netreceive -b;
#X obj 801 79 t b f;
#X obj 781 183 pack f f;
#X obj 779 155 f 0;
#X obj 776 207 route 0 1 2 3 4;
#X obj 869 328 moses 48;
#X obj 864 352 moses 58;
#X obj 897 427 * 10;
#X obj 863 428 + 0;
#X obj 743 324 t b;
#X obj 535 400 t l, f 4;
#X msg 692 104 2;
#X msg 602 112 1;
#X obj 384 359 select 10 32;
#X obj 847 462 f 0;
#X msg 464 115 0;
#X obj 388 450 list tosymbol;
#X obj 542 462 t b;
#X obj 535 376 list;
#X obj 451 401 list prepend;
#X obj 388 426 list append;
#X msg 750 378 0;
#X obj 866 380 - 48;
#X msg 457 474 add2;
#X obj 388 499 list prepend;
#X obj 387 527 list trim;
#X msg 696 550 add2 \$1;
#X obj 217 100 t f f;
#X obj 56 340 t b b b, f 27;
#X msg 215 450 add;
#X obj 75 419 loadbang;
#X obj 123 151 select 10 32;
#X obj 231 225 bang;
#X obj 806 251 select 10 32;
#X obj 353 22 loadbang;
#X msg 132 579 \; pd-ruby-patcher.pd;
#X obj 559 427 loadbang;
#X msg 26 463 set \, add \, add2 pd-ruby-patcher.pd;
#X msg 200 37 listen 0;
#X connect 0 0 1 0;
#X connect 1 0 28 0;
#X connect 2 0 4 0;
#X connect 2 1 3 1;
#X connect 3 0 5 0;
#X connect 4 0 3 0;
#X connect 5 0 14 0;
#X connect 5 0 34 0;
#X connect 5 1 14 0;
#X connect 5 2 34 0;
#X connect 6 0 13 0;
#X connect 6 1 7 0;
#X connect 7 0 10 0;
#X connect 7 0 23 0;
#X connect 7 1 13 0;
#X connect 8 0 9 1;
#X connect 9 0 8 0;
#X connect 9 0 15 1;
#X connect 10 0 12 0;
#X connect 11 0 20 1;
#X connect 12 0 4 1;
#X connect 13 0 4 1;
#X connect 14 0 21 0;
#X connect 14 1 21 0;
#X connect 14 2 20 0;
#X connect 15 0 27 0;
#X connect 16 0 4 1;
#X connect 17 0 18 0;
#X connect 17 0 25 0;
#X connect 18 0 16 0;
#X connect 19 0 11 0;
#X connect 20 0 11 0;
#X connect 20 0 21 1;
#X connect 21 0 17 0;
#X connect 22 0 9 1;
#X connect 23 0 9 0;
#X connect 24 0 25 1;
#X connect 25 0 26 0;
#X connect 26 0 36 0;
#X connect 27 0 36 0;
#X connect 28 0 32 0;
#X connect 28 1 2 0;
#X connect 29 0 38 0;
#X connect 29 1 36 0;
#X connect 29 2 30 0;
#X connect 30 0 36 0;
#X connect 31 0 38 0;
#X connect 32 0 29 0;
#X connect 32 0 33 0;
#X connect 32 1 33 0;
#X connect 33 0 19 0;
#X connect 33 0 22 0;
#X connect 33 0 16 0;
#X connect 34 0 15 0;
#X connect 34 1 15 0;
#X connect 34 2 6 0;
#X connect 35 0 0 0;
#X connect 35 0 16 0;
#X connect 37 0 24 0;
#X connect 38 0 36 0;
#X connect 39 0 0 0;
#X restore 385 205 pd core;
#X text 38 9 1 : open a terminal in this patch folder and run rpd.sh
(bash rpd.sh), f 71;
#X text 39 54 2 : Type this ruby command in the console (actually it's
an irb console), f 75;
#X text 42 148 3 : You should see some new object just here -->;
#X text 44 204 Finaly : You can watch under the hood here -->;
#X text 418 288 http://mgsx.net;
#X obj 64 93 cnv 15 430 25 empty empty > 20 12 0 14 -233017 -66577
0;
#X text 99 96 3.times.each do |i| obj(40 * i + 350 \, 150 \, 'lop~')
end;
